<svg xmlns="http://www.w3.org/2000/svg" width="16.31" height="18" viewBox="0 0 16.31 18">
  <metadata><?xpacket begin="﻿" id="W5M0MpCehiHzreSzNTczkc9d"?>
<x:xmpmeta xmlns:x="adobe:ns:meta/" x:xmptk="Adobe XMP Core 5.6-c142 79.160924, 2017/07/13-01:06:39        ">
   <rdf:RDF xmlns:rdf="http://www.w3.org/1999/02/22-rdf-syntax-ns#">
      <rdf:Description rdf:about=""/>
   </rdf:RDF>
</x:xmpmeta>
                                                                                                    
                                                                                                    
                                                                                                    
                                                                                                    
                                                                                                    
                                                                                                    
                                                                                                    
                                                                                                    
                                                                                                    
                                                                                                    
                                                                                                    
                                                                                                    
                                                                                                    
                                                                                                    
                                                                                                    
                                                                                                    
                                                                                                    
                                                                                                    
                                                                                                    
                                                                                                    
                           
<?xpacket end="w"?></metadata>
<defs>
    <style>
      .cls-1 {
        fill: #404447;
        fill-rule: evenodd;
        opacity: 0.45;
      }
    </style>
  </defs>
  <path id="bell" class="cls-1" d="M1131.23,55.946h1.54a1.382,1.382,0,1,0,2.76,0h1.54A2.923,2.923,0,1,1,1131.23,55.946ZM1142.3,53.7v0.323a1.414,1.414,0,0,1-1.38,1.446h-13.54a1.415,1.415,0,0,1-1.38-1.446V53.7a2.385,2.385,0,0,1,1.85-2.361V47.589a6.311,6.311,0,1,1,12.61,0v3.745A2.385,2.385,0,0,1,1142.3,53.7Zm-1.54,0a0.784,0.784,0,0,0-.77-0.8,1.1,1.1,0,0,1-1.07-1.123V47.589a4.775,4.775,0,1,0-9.54,0V51.77a1.1,1.1,0,0,1-1.07,1.123,0.784,0.784,0,0,0-.77.8v0.161h13.22V53.7Z" transform="translate(-1126 -41)"/>
</svg>
