<svg xmlns="http://www.w3.org/2000/svg" width="18" height="13" viewBox="0 0 18 13">
  <metadata><?xpacket begin="﻿" id="W5M0MpCehiHzreSzNTczkc9d"?>
<x:xmpmeta xmlns:x="adobe:ns:meta/" x:xmptk="Adobe XMP Core 5.6-c142 79.160924, 2017/07/13-01:06:39        ">
   <rdf:RDF xmlns:rdf="http://www.w3.org/1999/02/22-rdf-syntax-ns#">
      <rdf:Description rdf:about=""/>
   </rdf:RDF>
</x:xmpmeta>
                                                                                                    
                                                                                                    
                                                                                                    
                                                                                                    
                                                                                                    
                                                                                                    
                                                                                                    
                                                                                                    
                                                                                                    
                                                                                                    
                                                                                                    
                                                                                                    
                                                                                                    
                                                                                                    
                                                                                                    
                                                                                                    
                                                                                                    
                                                                                                    
                                                                                                    
                                                                                                    
                           
<?xpacket end="w"?></metadata>
<defs>
    <style>
      .cls-1 {
        fill: #404447;
        fill-rule: evenodd;
        opacity: 0.45;
      }
    </style>
  </defs>
  <path id="messege" class="cls-1" d="M1190.96,44.006h-13.9a2,2,0,0,0-2.05,1.948v9.111a2,2,0,0,0,2.05,1.948h13.9a2,2,0,0,0,2.04-1.948V45.954A2,2,0,0,0,1190.96,44.006Zm-14.31,2.632,6.17,5.689a1.759,1.759,0,0,0,2.37,0l6.17-5.689v8.426a0.383,0.383,0,0,1-.4.39h-13.9a0.386,0.386,0,0,1-.41-0.39V46.639Zm7.42,4.553a0.349,0.349,0,0,1-.12,0l-6.11-5.627h12.34Z" transform="translate(-1175 -44)"/>
</svg>
